<?xml version="1.0" encoding="UTF-8" standalone="no"?>
<!-- Created with Inkscape (http://www.inkscape.org/) -->

<svg
   width="47.389431mm"
   height="17.977552mm"
   viewBox="0 0 47.389431 17.977553"
   version="1.1"
   id="svg5"
   xmlns="http://www.w3.org/2000/svg"
   xmlns:svg="http://www.w3.org/2000/svg">
  <defs
     id="defs2">
    <rect
       x="90.719704"
       y="150.83517"
       width="795.71014"
       height="244.83389"
       id="rect493" />
  </defs>
  <g
     id="layer1"
     transform="translate(-17.521781,-12.968928)">
    <g
       id="g1419"
       transform="translate(-0.86757546,1.4459591)">
      <text
         xml:space="preserve"
         transform="matrix(0.07773491,0,0,0.07773491,4.0428032,11.144449)"
         id="text491"
         style="font-size:93.3333px;font-family:Arial;-inkscape-font-specification:'Arial, Normal';text-align:center;white-space:pre;shape-inside:url(#rect493);display:inline;fill:#000000"><tspan
           x="182.50663"
           y="234.90632"
           id="tspan1799"><tspan
             style="font-family:'Book Antiqua';-inkscape-font-specification:'Book Antiqua, Normal';fill:#333333"
             id="tspan1797">Pressure Wash</tspan></tspan></text>
      <path
         id="Path_2639"
         data-name="Path 2639"
         d="m 48.136939,16.843889 0.208227,-0.13521 c 0.218546,-0.14076 0.436563,-0.28284 0.655902,-0.42148 a 1.012825,1.012825 0 0 1 0.536311,-0.1524 c 0.351102,-0.005 0.702204,-0.002 1.053306,0 a 0.72972082,0.72972082 0 0 1 0.154781,0.0151 0.12488333,0.12488333 0 0 1 0.0852,0.19474 0.48709791,0.48709791 0 0 1 -0.175419,0.17806 c -0.274902,0.17304 -0.547952,0.34952 -0.820208,0.52573 q -0.220927,0.14234 -0.439738,0.28866 -0.372533,0.24977 -0.743479,0.50138 c -0.05847,0.0394 -0.115887,0.0794 -0.163777,0.11404 a 0.22251458,0.22251458 0 0 0 -0.0063,0.0561 1.273175,1.273175 0 0 1 -0.144727,0.92128 1.4901333,1.4901333 0 0 0 -0.138641,0.38259 1.1342687,1.1342687 0 0 0 0.0164,0.50271 0.56462083,0.56462083 0 0 0 0.522287,0.42465 0.75723749,0.75723749 0 0 0 0.599546,-0.23019 3.7861875,3.7861875 0 0 0 0.480483,-0.63685 c 0.181504,-0.29263 0.350573,-0.5924 0.525463,-0.88926 0.270669,-0.45905 0.557741,-0.90805 0.854604,-1.35123 0.307181,-0.45879 0.598487,-0.92816 0.896408,-1.39329 0.143669,-0.22464 0.280988,-0.45324 0.430477,-0.67363 0.349515,-0.517 0.674688,-1.04934 0.998538,-1.58274 0.05741,-0.0942 0.119592,-0.18521 0.185208,-0.27543 a 0.35374791,0.35374791 0 0 1 0.298979,-0.15717 4.4505562,4.4505562 0 0 1 0.816769,0.0392 0.13890625,0.13890625 0 0 1 0.112713,0.21379 0.92022082,0.92022082 0 0 1 -0.05689,0.10186 c -0.06985,0.10954 -0.137054,0.22146 -0.211666,0.32729 -0.386292,0.53949 -0.720461,1.11284 -1.072092,1.67428 -0.310092,0.49557 -0.600869,1.00357 -0.906198,1.50204 -0.19341,0.31592 -0.401373,0.62257 -0.597429,0.93716 a 8.0107895,8.0107895 0 0 0 -0.735277,1.43801 1.2247562,1.2247562 0 0 0 -0.09366,0.45508 0.396875,0.396875 0 0 0 0.439209,0.41196 0.86439374,0.86439374 0 0 0 0.5207,-0.19447 4.5884041,4.5884041 0 0 0 1.203325,-1.41632 c 0.140493,-0.27066 0.305329,-0.52916 0.460639,-0.79189 q 0.178065,-0.30189 0.359833,-0.60193 c 0.0471,-0.0778 0.09896,-0.15267 0.150019,-0.22781 a 0.44185416,0.44185416 0 0 1 0.400315,-0.19791 c 0.07144,10e-4 0.143139,0.006 0.214312,0.01 0.14949,0.007 0.29845,0.0138 0.447411,0.023 a 0.52493333,0.52493333 0 0 1 0.133614,0.0217 0.14816666,0.14816666 0 0 1 0.09393,0.20293 0.67653957,0.67653957 0 0 1 -0.06985,0.13891 c -0.08387,0.12356 -0.166687,0.24818 -0.259556,0.36539 a 6.3431208,6.3431208 0 0 0 -0.47625,0.68792 c -0.160337,0.26723 -0.332581,0.52916 -0.495564,0.79375 a 2.1201062,2.1201062 0 0 0 -0.2413,0.48789 0.88053332,0.88053332 0 0 0 -0.02884,0.34713 0.36142083,0.36142083 0 0 0 0.245533,0.32226 0.29818541,0.29818541 0 0 0 0.208757,0.008 1.3448771,1.3448771 0 0 0 0.455877,-0.25373 8.3872916,8.3872916 0 0 0 0.922602,-0.97685 c 0.243945,-0.28707 0.495035,-0.56832 0.744008,-0.8509 q 0.322262,-0.36538 0.648229,-0.72786 a 1.6721666,1.6721666 0 0 1 0.181769,-0.17569 0.93556665,0.93556665 0 0 1 0.808831,-0.17912 0.65828333,0.65828333 0 0 1 0.334169,0.19103 c 0.03704,0.0357 0.07038,0.0754 0.111389,0.11986 0.04974,-0.0281 0.09604,-0.0497 0.137584,-0.0794 a 2.5984729,2.5984729 0 0 1 1.039019,-0.42095 1.6076083,1.6076083 0 0 1 1.127918,0.19976 0.95832082,0.95832082 0 0 1 0.491332,0.75565 1.5345833,1.5345833 0 0 1 -0.03572,0.40481 1.6483541,1.6483541 0 0 1 -0.2032,0.52467 c -0.127,0.2196 -0.260086,0.43524 -0.388409,0.65379 -0.06906,0.11721 -0.140229,0.23415 -0.199495,0.35692 a 1.3758333,1.3758333 0 0 0 -0.09419,0.27569 0.17065625,0.17065625 0 0 0 0.181769,0.23151 0.76993749,0.76993749 0 0 0 0.284162,-0.0579 c 0.20029,-0.0915 0.396875,-0.19341 0.587111,-0.30453 0.207433,-0.12065 0.405606,-0.25797 0.609864,-0.38471 a 1.8703396,1.8703396 0 0 1 0.208227,-0.10583 0.27887083,0.27887083 0 0 1 0.09313,-0.023 0.11138958,0.11138958 0 0 1 0.112977,0.0873 0.29580416,0.29580416 0 0 1 -0.01905,0.20929 c -0.156105,0.30665 -0.310092,0.61462 -0.473075,0.91757 a 0.43894374,0.43894374 0 0 1 -0.1524,0.14526 3.3440687,3.3440687 0 0 1 -0.406136,0.23151 4.6915916,4.6915916 0 0 1 -1.005416,0.36486 1.4083771,1.4083771 0 0 1 -0.484982,0.0135 0.97313749,0.97313749 0 0 1 -0.808831,-0.92101 1.2739687,1.2739687 0 0 1 0.0762,-0.51726 2.7516666,2.7516666 0 0 1 0.29845,-0.58949 c 0.15875,-0.23813 0.309563,-0.48102 0.46355,-0.72152 a 0.72098957,0.72098957 0 0 0 0.111919,-0.26803 0.30374166,0.30374166 0 0 0 -0.143404,-0.33549 0.58049583,0.58049583 0 0 0 -0.4445,-0.0881 1.0877021,1.0877021 0 0 0 -0.702734,0.45111 c -0.06641,0.0963 -0.137318,0.19024 -0.194204,0.29104 -0.193939,0.34581 -0.395023,0.68792 -0.564885,1.04643 a 7.412302,7.412302 0 0 1 -0.652198,1.10728 2.0047479,2.0047479 0 0 1 -0.334169,0.37941 0.67442291,0.67442291 0 0 1 -0.42545,0.17066 c -0.13626,0.004 -0.27305,0.006 -0.40931,0.003 a 0.37729583,0.37729583 0 0 1 -0.307711,-0.14314 0.29104166,0.29104166 0 0 1 -0.02646,-0.36195 1.6753416,1.6753416 0 0 1 0.202406,-0.26141 3.8020625,3.8020625 0 0 0 0.509588,-0.66304 c 0.232568,-0.36857 0.429683,-0.75698 0.642937,-1.13613 a 0.50456041,0.50456041 0 0 0 0.08996,-0.23151 c -0.07408,0.002 -0.09128,0.0582 -0.12065,0.0963 -0.195528,0.25136 -0.380736,0.51118 -0.58473,0.75539 q -0.482335,0.57494 -0.985573,1.13215 a 3.1443083,3.1443083 0 0 1 -0.573352,0.49715 1.9925771,1.9925771 0 0 1 -0.633147,0.29104 0.70749582,0.70749582 0 0 1 -0.13388,0.023 c -0.14261,0.006 -0.28575,0.014 -0.428889,0.0116 a 1.1787187,1.1787187 0 0 1 -0.848784,-0.42068 c -0.04921,-0.0516 -0.08864,-0.11219 -0.137318,-0.16431 a 0.95488124,0.95488124 0 0 0 -0.111654,-0.0905 c -0.09446,0.0794 -0.182828,0.15478 -0.271992,0.22887 a 1.8880666,1.8880666 0 0 1 -0.718608,0.37941 2.3341541,2.3341541 0 0 1 -1.023673,0.0579 0.96467082,0.96467082 0 0 1 -0.638969,-0.40904 c -0.03704,-0.0529 -0.06694,-0.11033 -0.09895,-0.16378 -0.04207,-0.0153 -0.06244,0.014 -0.08467,0.0355 a 1.7319625,1.7319625 0 0 1 -1.118923,0.48868 2.4100896,2.4100896 0 0 1 -0.6223,-0.0143 1.7422812,1.7422812 0 0 1 -1.005416,-0.55377 1.4091708,1.4091708 0 0 1 -0.361686,-0.80645 1.8415,1.8415 0 0 1 0.08123,-0.71173 c 0.02646,-0.0873 0.06112,-0.17145 0.08864,-0.2577 a 1.6353896,1.6353896 0 0 0 0.07408,-0.26168 0.32041041,0.32041041 0 0 0 -0.128588,-0.3257 0.39131875,0.39131875 0 0 0 -0.08149,-0.031 c -0.04313,0.0688 -0.0852,0.13229 -0.124884,0.19923 q -0.250031,0.41804 -0.499533,0.83714 c -0.15875,0.26776 -0.3175,0.5371 -0.478896,0.80327 -0.128323,0.21167 -0.254529,0.42334 -0.396875,0.62521 a 1.8055166,1.8055166 0 0 1 -0.321733,0.36328 0.88899999,0.88899999 0 0 1 -0.909108,0.17753 0.66383957,0.66383957 0 0 1 -0.09049,-0.036 0.34581041,0.34581041 0 0 0 -0.282839,-0.0212 1.5835312,1.5835312 0 0 1 -0.539486,0.0635 0.50270833,0.50270833 0 0 1 -0.153987,-0.018 0.97895832,0.97895832 0 0 1 -0.718873,-0.8591 1.3091583,1.3091583 0 0 1 0.124354,-0.68263 4.4547895,4.4547895 0 0 1 0.336814,-0.61409 c 0.13679,-0.20559 0.264584,-0.41646 0.393436,-0.6276 a 0.75406249,0.75406249 0 0 0 0.08387,-0.19605 0.32041041,0.32041041 0 0 0 -0.163777,-0.38021 0.58208333,0.58208333 0 0 0 -0.449792,-0.0677 1.2057062,1.2057062 0 0 0 -0.623887,0.37491 2.4537458,2.4537458 0 0 0 -0.341048,0.5207 c -0.132292,0.26088 -0.252413,0.52917 -0.394229,0.7829 -0.202142,0.36354 -0.415396,0.72047 -0.631296,1.0758 a 2.4296687,2.4296687 0 0 1 -0.377032,0.47096 0.71966666,0.71966666 0 0 1 -0.505618,0.21881 c -0.123296,0.003 -0.246857,0.003 -0.370417,0.002 a 0.49926874,0.49926874 0 0 1 -0.115623,-0.0156 0.33681458,0.33681458 0 0 1 -0.208227,-0.5334 2.0108333,2.0108333 0 0 1 0.199231,-0.23813 2.729177,2.729177 0 0 0 0.410634,-0.51858 c 0.173566,-0.29104 0.36486,-0.56886 0.511704,-0.87445 0.07938,-0.16378 0.173566,-0.31935 0.258762,-0.48048 a 1.0924646,1.0924646 0 0 0 0.04921,-0.13574 c -0.06985,0.002 -0.08811,0.046 -0.112977,0.0775 -0.187854,0.24103 -0.368036,0.48815 -0.562769,0.72284 -0.307181,0.37042 -0.618331,0.73766 -0.9398,1.09511 a 4.9916291,4.9916291 0 0 1 -0.511704,0.4789 1.9446875,1.9446875 0 0 1 -0.797719,0.39158 1.190625,1.190625 0 0 1 -0.653257,-0.0307 1.5703021,1.5703021 0 0 1 -0.890852,-0.6559 c -0.01032,-0.0164 -0.02275,-0.0315 -0.04154,-0.0572 a 1.5417271,1.5417271 0 0 0 -0.116946,0.11588 1.9640021,1.9640021 0 0 1 -0.972872,0.6186 1.2356042,1.2356042 0 0 1 -0.946415,-0.0918 c -0.09313,-0.0455 -0.181769,-0.10054 -0.271463,-0.15293 a 1.1377083,1.1377083 0 0 1 -0.349514,-0.30639 1.2496271,1.2496271 0 0 0 -0.08414,-0.0926 c -0.05821,0.0407 -0.110331,0.0778 -0.162983,0.1143 a 3.3239604,3.3239604 0 0 1 -1.176867,0.54477 2.5042812,2.5042812 0 0 1 -0.560652,0.0601 1.2387792,1.2387792 0 0 1 -0.526786,-0.12408 0.89243957,0.89243957 0 0 1 -0.416454,-0.39688 1.4605,1.4605 0 0 1 -0.182562,-0.67072 3.89255,3.89255 0 0 1 0.114564,-1.04325 c 0.0164,-0.0622 0.02646,-0.12568 0.03916,-0.17886 a 0.0746125,0.0746125 0 0 0 -0.08625,-0.0484 c -0.220133,0.0151 -0.440531,0.0317 -0.661458,0.0484 a 0.16853958,0.16853958 0 0 0 -0.141817,0.09 0.47624999,0.47624999 0 0 0 -0.02646,0.0529 11.524192,11.524192 0 0 1 -0.702468,1.28058 4.5243749,4.5243749 0 0 1 -0.448205,0.63685 0.81465207,0.81465207 0 0 1 -0.716227,0.32041 c -0.09737,-0.006 -0.195262,0.002 -0.292364,-0.005 a 0.36168541,0.36168541 0 0 1 -0.284692,-0.14658 0.29897916,0.29897916 0 0 1 -0.01879,-0.36354 2.0452291,2.0452291 0 0 1 0.231246,-0.28813 2.7614562,2.7614562 0 0 0 0.386291,-0.48868 c 0.175154,-0.2884 0.364331,-0.56886 0.513027,-0.87313 0.07699,-0.15875 0.169863,-0.30718 0.254529,-0.46037 0.02196,-0.0394 0.04048,-0.081 0.06377,-0.12859 a 0.50482499,0.50482499 0 0 0 -0.07646,-0.0587 1.4184312,1.4184312 0 0 1 -0.552185,-0.53763 1.0366375,1.0366375 0 0 1 -0.09869,-0.86413 1.1845396,1.1845396 0 0 1 0.337609,-0.56065 1.4496521,1.4496521 0 0 1 1.061773,-0.41064 1.1787187,1.1787187 0 0 1 1.035579,0.65564 0.69744166,0.69744166 0 0 1 0.06906,0.24157 1.1689292,1.1689292 0 0 1 -0.06694,0.6133 c -0.01191,0.0296 -0.0217,0.0606 -0.03678,0.10266 0.03519,0.0164 0.06826,0.0458 0.09948,0.0437 a 3.2895645,3.2895645 0 0 0 0.328083,-0.0384 c 0.0635,-0.0103 0.124883,-0.0354 0.187854,-0.0505 a 0.89217499,0.89217499 0 0 0 0.51435,-0.33258 4.0917812,4.0917812 0 0 1 0.303213,-0.32993 0.86148332,0.86148332 0 0 1 0.770202,-0.23813 0.396875,0.396875 0 0 1 0.253735,0.13229 0.72442916,0.72442916 0 0 1 0.180975,0.7366 1.2964583,1.2964583 0 0 1 -0.644525,0.7493 2.3127229,2.3127229 0 0 1 -0.286014,0.1233 0.24738541,0.24738541 0 0 0 -0.145257,0.12171 2.4394583,2.4394583 0 0 0 -0.264583,0.70882 1.7351375,1.7351375 0 0 0 0.02381,0.62018 0.31961666,0.31961666 0 0 0 0.3175,0.26458 0.58869791,0.58869791 0 0 0 0.246592,-0.0481 1.7182041,1.7182041 0 0 0 0.684477,-0.4699 c 0.152664,-0.16854 0.309562,-0.3339 0.449792,-0.51223 a 2.3934208,2.3934208 0 0 0 0.219868,-0.36672 6.3764583,6.3764583 0 0 1 0.666486,-1.02922 2.3198666,2.3198666 0 0 1 0.533135,-0.47917 3.7753395,3.7753395 0 0 1 1.137708,-0.54027 4.7429208,4.7429208 0 0 1 0.496888,-0.0966 1.6343312,1.6343312 0 0 1 0.878152,0.11536 0.24897291,0.24897291 0 0 0 0.272256,-0.0111 0.44132499,0.44132499 0 0 1 0.280459,-0.0661 c 0.233363,0.0114 0.466725,0.0251 0.700352,0.0344 0.200819,0.008 0.228336,0.14102 0.138377,0.27702 -0.100277,0.1516 -0.209285,0.29765 -0.311414,0.4482 -0.167746,0.24739 -0.335492,0.49451 -0.499005,0.7448 -0.14896,0.2286 -0.295804,0.45879 -0.436827,0.69242 a 2.1865166,2.1865166 0 0 0 -0.297127,0.69532 0.46831249,0.46831249 0 0 0 0.02434,0.28681 0.38364583,0.38364583 0 0 0 0.360627,0.25268 0.88952916,0.88952916 0 0 0 0.608542,-0.2249 6.9601291,6.9601291 0 0 0 0.844814,-0.86254 c 0.302684,-0.35666 0.614628,-0.70538 0.92075,-1.05833 0.15293,-0.17674 0.300832,-0.35851 0.454555,-0.53499 a 3.894402,3.894402 0 0 1 0.268287,-0.28443 0.89720207,0.89720207 0 0 1 0.978958,-0.17833 0.76993749,0.76993749 0 0 1 0.205582,0.14367 1.5890875,1.5890875 0 0 1 0.125412,0.12568 c 0.03466,-0.0206 0.0635,-0.0347 0.08864,-0.0529 a 2.7429354,2.7429354 0 0 1 1.08876,-0.4527 1.3509625,1.3509625 0 0 1 0.484981,-0.003 2.5929166,2.5929166 0 0 1 0.559065,0.16615 0.69135624,0.69135624 0 0 1 0.266964,0.19077 1.2869333,1.2869333 0 0 1 0.275432,0.44423 1.0448396,1.0448396 0 0 1 -0.01879,0.59585 1.7409583,1.7409583 0 0 1 -0.150283,0.39978 c -0.152136,0.2794 -0.321204,0.54928 -0.480483,0.82497 -0.06853,0.11774 -0.134409,0.23813 -0.192617,0.36063 a 0.72310624,0.72310624 0 0 0 -0.05953,0.20452 0.15451666,0.15451666 0 0 0 0.148166,0.18944 0.67098332,0.67098332 0 0 0 0.155311,0.001 0.81121249,0.81121249 0 0 0 0.416718,-0.14896 1.9097625,1.9097625 0 0 0 0.519113,-0.52203 c 0.238125,-0.38788 0.471487,-0.77787 0.710142,-1.16416 0.132291,-0.2159 0.271462,-0.42784 0.407723,-0.64135 0.0381,-0.0601 0.07752,-0.11986 0.115622,-0.18045 0.461169,-0.73078 0.918369,-1.46473 1.38483,-2.19234 0.301889,-0.47016 0.61886,-0.93027 0.926041,-1.39726 0.105834,-0.16272 0.202142,-0.33364 0.305329,-0.49901 a 2.4032104,2.4032104 0 0 1 0.144992,-0.20743 0.35163125,0.35163125 0 0 1 0.286015,-0.14367 c 0.207962,0 0.41566,0.005 0.623623,0.0135 a 0.51752499,0.51752499 0 0 1 0.151341,0.0339 0.19102916,0.19102916 0 0 1 0.119327,0.30533 c -0.07488,0.12938 -0.156633,0.25453 -0.239712,0.37862 -0.278077,0.41566 -0.555625,0.83132 -0.804598,1.2663 -0.161131,0.28204 -0.338138,0.55562 -0.510911,0.82946 -0.197114,0.31354 -0.396874,0.62416 -0.596106,0.93637 l 0.03413,0.0325 m -13.551165,2.64213 c 0.0029,0.2704 0.06906,0.36063 0.2794,0.43921 a 0.65616666,0.65616666 0 0 0 0.661458,-0.0979 1.5875,1.5875 0 0 0 0.341577,-0.34581 c 0.178065,-0.24791 0.358246,-0.4953 0.5207,-0.75327 0.144992,-0.23072 0.270669,-0.47387 0.396875,-0.71437 a 0.17859375,0.17859375 0 0 0 -0.100277,-0.28311 0.76173541,0.76173541 0 0 0 -0.380206,-0.0582 1.4575896,1.4575896 0 0 0 -0.567002,0.19447 2.3420916,2.3420916 0 0 0 -1.117865,1.41658 1.4059958,1.4059958 0 0 0 -0.03466,0.20241 m -5.408083,-2.46063 a 0.26458333,0.26458333 0 0 0 -0.257969,0.26141 0.2794,0.2794 0 0 0 0.287338,0.25691 0.29315833,0.29315833 0 0 0 0.226218,-0.27728 0.25796875,0.25796875 0 0 0 -0.255587,-0.24104"
         fill="#fff"
         style="fill:#333333;stroke-width:0.264583" />
      <path
         id="Path_2640"
         data-name="Path 2640"
         d="m 23.142016,17.559059 a 0.19102916,0.19102916 0 0 0 -0.15875,-0.0598 5.205677,5.205677 0 0 0 -1.296458,0.11086 1.4343062,1.4343062 0 0 1 -0.250296,0.0357 0.30771041,0.30771041 0 0 1 -0.13044,-0.0265 0.1031875,0.1031875 0 0 1 -0.06456,-0.14128 0.80168749,0.80168749 0 0 1 0.03731,-0.11086 6.1886041,6.1886041 0 0 1 0.47625,-0.86995 0.57811458,0.57811458 0 0 1 0.341313,-0.24157 2.5225375,2.5225375 0 0 1 0.557742,-0.0833 6.6778187,6.6778187 0 0 1 1.187714,-0.006 c 0.05794,0.006 0.116417,0.006 0.178329,0.009 0.02275,-0.0347 0.04657,-0.0651 0.06456,-0.099 0.377561,-0.69665 0.758031,-1.39224 1.1303,-2.09233 0.15875,-0.29818 0.299773,-0.60563 0.448204,-0.90911 0.01376,-0.0265 0.02249,-0.0582 0.03916,-0.1016 a 0.91810416,0.91810416 0 0 0 -0.123031,-0.01 c -0.395023,0.0265 -0.791104,0.0482 -1.182952,0.11191 -0.185208,0.0304 -0.372533,0.0529 -0.5588,0.0828 a 2.4264937,2.4264937 0 0 0 -0.835025,0.30903 1.3843,1.3843 0 0 0 -0.351367,0.30745 c -0.04233,0.0492 -0.08387,0.0995 -0.129381,0.14578 a 0.32385,0.32385 0 0 1 -0.222514,0.10795 c -0.32438,0.0111 -0.649023,0.0228 -0.973402,0.0283 a 0.33205208,0.33205208 0 0 1 -0.16563,-0.0445 0.19949583,0.19949583 0 0 1 -0.08916,-0.29607 1.4552083,1.4552083 0 0 1 0.09287,-0.14869 5.0485145,5.0485145 0 0 1 0.710407,-0.82577 2.5908,2.5908 0 0 1 0.760941,-0.50032 c 0.228336,-0.0926 0.461169,-0.17436 0.693738,-0.25612 a 6.8804895,6.8804895 0 0 1 1.217083,-0.26458 10.133542,10.133542 0 0 1 1.808692,-0.0794 c 0.220927,0.005 0.442118,0.003 0.663046,0.007 0.350572,0.007 0.701145,0.019 1.051454,0.0251 0.312208,0.005 0.624152,0.006 0.936095,0.007 q 0.651934,0 1.305455,-0.001 l 1.441979,-0.002 c 0.175419,0 0.350837,0.003 0.526256,0 a 3.3848145,3.3848145 0 0 0 0.869421,-0.10292 2.5489958,2.5489958 0 0 1 0.365389,-0.0513 0.32914166,0.32914166 0 0 1 0.322528,0.3929 0.84904791,0.84904791 0 0 1 -0.04842,0.14764 2.2336125,2.2336125 0 0 1 -0.341842,0.51991 0.73712916,0.73712916 0 0 1 -0.396875,0.22966 5.2996041,5.2996041 0 0 1 -0.887942,0.11324 c -0.239977,0.0103 -0.480218,0.0103 -0.72046,0.0114 q -0.828675,0.003 -1.657615,0.002 c -0.175418,0 -0.351102,-0.006 -0.526785,-0.007 -0.636852,-0.003 -1.274233,-0.004 -1.911086,-0.0111 a 0.22330833,0.22330833 0 0 0 -0.211666,0.10954 c -0.02646,0.0437 -0.05292,0.09 -0.07699,0.13573 -0.234685,0.44186 -0.460375,0.88847 -0.706173,1.32424 -0.302683,0.53764 -0.622035,1.06627 -0.933979,1.59861 -0.03201,0.055 -0.06323,0.11139 -0.08969,0.15875 0.0093,0.0468 0.03836,0.0471 0.06244,0.0466 0.298979,-0.005 0.600075,0.0111 0.895879,-0.0217 a 3.500702,3.500702 0 0 0 1.108075,-0.2884 1.9931062,1.9931062 0 0 1 0.216429,-0.0873 0.32755416,0.32755416 0 0 1 0.114565,-0.0106 0.08810625,0.08810625 0 0 1 0.08176,0.0714 0.30268333,0.30268333 0 0 1 -0.0066,0.19156 1.019175,1.019175 0 0 1 -0.04815,0.10583 c -0.152665,0.3011 -0.303213,0.60352 -0.459581,0.90303 a 0.71437499,0.71437499 0 0 1 -0.434711,0.3376 3.1996062,3.1996062 0 0 1 -0.959114,0.14949 8.6047791,8.6047791 0 0 1 -1.012561,-0.0265 c -0.08361,-0.008 -0.168539,-0.001 -0.264583,-0.001 -0.02434,0.0355 -0.05636,0.0754 -0.08176,0.11959 -0.168539,0.29316 -0.331787,0.58897 -0.504296,0.87948 -0.368035,0.62018 -0.733954,1.24222 -1.113102,1.85526 a 7.5223687,7.5223687 0 0 1 -1.049602,1.329 5.7869666,5.7869666 0 0 1 -0.838729,0.69532 3.6324645,3.6324645 0 0 1 -1.171575,0.51092 6.7590457,6.7590457 0 0 1 -0.722048,0.16007 0.36195,0.36195 0 0 1 -0.192617,-0.008 0.17330208,0.17330208 0 0 1 -0.123295,-0.22887 3.425825,3.425825 0 0 1 0.134937,-0.4064 c 0.109538,-0.26458 0.23204,-0.52255 0.343958,-0.78608 a 0.26458333,0.26458333 0 0 1 0.25744,-0.17171 0.91096041,0.91096041 0 0 1 0.116946,0 1.2848167,1.2848167 0 0 0 0.75856,-0.2032 2.2198541,2.2198541 0 0 0 0.542661,-0.44185 c 0.217752,-0.2413 0.429418,-0.48869 0.641085,-0.73502 a 2.2571604,2.2571604 0 0 0 0.140229,-0.18706 18.513425,18.513425 0 0 0 1.32424,-2.2942 c 0.02275,-0.0458 0.0381,-0.0953 0.05874,-0.14817"
         fill="#fff"
         style="fill:#333333;stroke-width:0.264583" />
    </g>
  </g>
</svg>
